<?xml version="1.0" standalone="no"?><svg xmlns="http://www.w3.org/2000/svg" viewBox="0 0 1440 320"><path fill="#ffffff" fill-opacity="1" d="M0,64L16,80C32,96,64,128,96,160C128,192,160,224,192,224C224,224,256,192,288,186.7C320,181,352,203,384,181.3C416,160,448,96,480,58.7C512,21,544,11,576,26.7C608,43,640,85,672,122.7C704,160,736,192,768,176C800,160,832,96,864,64C896,32,928,32,960,74.7C992,117,1024,203,1056,202.7C1088,203,1120,117,1152,96C1184,75,1216,117,1248,133.3C1280,149,1312,139,1344,128C1376,117,1408,107,1424,101.3L1440,96L1440,0L1424,0C1408,0,1376,0,1344,0C1312,0,1280,0,1248,0C1216,0,1184,0,1152,0C1120,0,1088,0,1056,0C1024,0,992,0,960,0C928,0,896,0,864,0C832,0,800,0,768,0C736,0,704,0,672,0C640,0,608,0,576,0C544,0,512,0,480,0C448,0,416,0,384,0C352,0,320,0,288,0C256,0,224,0,192,0C160,0,128,0,96,0C64,0,32,0,16,0L0,0Z"></path></svg>